<?xml version="1.0" encoding="UTF-8"?>
<svg width="600px" height="600px" viewBox="0 0 600 600" version="1.1" xmlns="http://www.w3.org/2000/svg" xmlns:xlink="http://www.w3.org/1999/xlink">
    <title>Cybersecurity @2x</title>
    <g id="Cybersecurity-" stroke="none" stroke-width="1" fill="none" fill-rule="evenodd">
        <g id="Group" transform="translate(0.000000, 33.000000)">
            <g id="Group-16">
                <polygon id="Path-6" fill="#5E89FF" points="268.189453 30 64.5 378.667969 95.6835938 431.941406 284.683413 105.568359 429.720703 357.914063 458.642578 357.914063"></polygon>
                <polygon id="Path-6-Copy" fill="#053C78" transform="translate(272.633789, 337.558594) rotate(-120.000000) translate(-272.633789, -337.558594) " points="279.251953 136.587891 75.5625 485.255859 106.746094 538.529297 295.745913 212.15625 440.783203 464.501953 469.705078 464.501953"></polygon>
                <polygon id="Path-6-Copy-2" fill="#285AE6" transform="translate(360.143262, 272.971777) rotate(-240.000000) translate(-360.143262, -272.971777) " points="368.435465 70.9765551 162.696973 419.095486 195.380567 474.967 384.380386 148.593953 528.667676 399.640618 557.589551 399.640618"></polygon>
            </g>
            <path d="M393.880652,192.25 L393.880652,168.250023 L388.079876,168.250023 L388.079876,192.25 L393.880652,192.25 Z M402.343933,192.25 L402.343933,181.984385 C402.355652,179.933605 403.550963,178.714857 405.367368,178.714857 C407.183772,178.714857 408.261896,179.910168 408.250178,181.902354 L408.250178,192.25 L413.980682,192.25 L413.980682,180.777355 C413.99236,176.722671 411.519706,174.015642 407.734553,174.015642 C405.074399,174.015642 403.058776,175.363297 402.261902,177.554702 L402.062684,177.554702 L402.062684,174.250017 L396.61347,174.250017 L396.61347,192.25 L402.343933,192.25 Z M424.201744,192.507812 C425.584555,192.4375 426.580648,192.15625 427.131429,191.992188 L426.264242,187.855473 C426.018149,187.914067 425.44393,188.031254 425.010337,188.031254 C424.084557,188.031254 423.557213,187.656254 423.557213,186.589849 L423.557213,178.468763 L426.803304,178.468763 L426.803304,174.250017 L423.557213,174.250017 L423.557213,169.937521 L417.82675,169.937521 L417.82675,174.250017 L415.447846,174.250017 L415.447846,178.468763 L417.82675,178.468763 L417.82675,187.222661 C417.791594,190.867189 420.158779,192.695312 424.201744,192.507812 Z M437.059556,192.589843 C441.782207,192.589843 444.887673,190.304689 445.543923,186.76563 L440.282209,186.613287 C439.836897,187.808598 438.665023,188.453129 437.165024,188.453129 C434.961901,188.453129 433.602528,186.988286 433.602528,184.785163 L433.602528,184.63282 L445.602516,184.63282 L445.602516,183.203134 C445.602516,177.273452 441.993145,174.015642 436.883775,174.015642 C431.44628,174.015642 427.954096,177.742201 427.954096,183.320321 C427.954096,189.085941 431.399405,192.589843 437.059556,192.589843 Z M440.27049,181.304698 L433.602528,181.304698 C433.684559,179.511731 435.102528,178.152357 437.000962,178.152357 C438.887679,178.152357 440.247053,179.464856 440.27049,181.304698 Z M456.034556,199.374993 C461.460332,199.374993 465.163453,196.902339 465.163453,192.320312 L465.163453,174.250017 L459.456427,174.250017 L459.456427,177.332045 L459.292365,177.332045 C458.60096,175.679703 457.030649,174.015642 454.194714,174.015642 C450.432999,174.015642 447.022846,176.910171 447.022846,183.226571 C447.022846,189.343753 450.268936,192.003906 454.218151,192.003906 C456.866586,192.003906 458.636116,190.773439 459.315803,189.109378 L459.515021,189.109378 L459.515021,192.273437 C459.515021,194.57031 458.108772,195.402341 456.186899,195.402341 C454.347057,195.402341 453.245496,194.699216 452.940809,193.585936 L447.515033,193.890623 C447.936907,197.042964 450.901748,199.374993 456.034556,199.374993 Z M456.210337,187.832035 C454.089245,187.832035 452.905652,186.109381 452.905652,183.226571 C452.905652,180.35548 454.077526,178.492201 456.210337,178.492201 C458.307991,178.492201 459.52674,180.308605 459.52674,183.226571 C459.52674,186.1211 458.296272,187.832035 456.210337,187.832035 Z M473.638464,192.25 L473.638464,182.476572 C473.638464,180.332043 475.161901,178.890638 477.21268,178.890638 C477.892367,178.890638 478.911897,179.007825 479.462678,179.195325 L479.462678,174.214861 C478.982209,174.085955 478.384554,174.003924 477.85721,174.003924 C475.888462,174.003924 474.318151,175.15236 473.661902,177.531264 L473.474402,177.531264 L473.474402,174.250017 L467.908001,174.250017 L467.908001,192.25 L473.638464,192.25 Z M483.77753,172.152363 C485.406434,172.152363 486.718933,170.921895 486.718933,169.410178 C486.718933,167.898461 485.406434,166.679712 483.77753,166.679712 C482.160344,166.679712 480.836126,167.898461 480.836126,169.410178 C480.836126,170.921895 482.160344,172.152363 483.77753,172.152363 Z M486.636902,192.25 L486.636902,174.250017 L480.906439,174.250017 L480.906439,192.25 L486.636902,192.25 Z M496.928306,192.507812 C498.311118,192.4375 499.30721,192.15625 499.857991,191.992188 L498.990804,187.855473 C498.744711,187.914067 498.170493,188.031254 497.736899,188.031254 C496.811119,188.031254 496.283776,187.656254 496.283776,186.589849 L496.283776,178.468763 L499.529866,178.468763 L499.529866,174.250017 L496.283776,174.250017 L496.283776,169.937521 L490.553312,169.937521 L490.553312,174.250017 L488.174408,174.250017 L488.174408,178.468763 L490.553312,178.468763 L490.553312,187.222661 C490.518156,190.867189 492.885341,192.695312 496.928306,192.507812 Z M505.063466,198.999994 C509.188463,198.999994 511.239242,196.914058 512.235335,193.972655 L519.020484,174.261736 L512.985334,174.250017 L509.622056,187.093755 L509.434556,187.093755 L506.118159,174.250017 L500.118159,174.250017 L506.51659,192.906249 L506.293934,193.445311 C505.743153,194.792966 504.500967,194.816404 502.813469,194.265623 L501.547845,198.425775 C502.415031,198.777338 503.692374,198.999994 505.063466,198.999994 Z" id="Integrity" fill="#000000" fill-rule="nonzero" transform="translate(453.550180, 183.027353) rotate(-300.000000) translate(-453.550180, -183.027353) "></path>
            <path d="M220.620697,480.5 L222.202726,475.460942 L230.487875,475.460942 L232.069904,480.5 L238.304274,480.5 L230.206625,456.500023 L222.483976,456.500023 L214.386328,480.5 L220.620697,480.5 Z M229.105064,471.054697 L223.585538,471.054697 L226.245691,462.546892 L226.433191,462.546892 L229.105064,471.054697 Z M249.029285,480.5 L255.20506,462.500017 L249.169909,462.500017 L245.841788,474.898443 L245.654288,474.898443 L242.337885,462.500017 L236.302734,462.500017 L242.466791,480.5 L249.029285,480.5 Z M261.078509,480.804687 C263.586319,480.804687 265.320693,479.832032 266.305067,477.99219 L266.445692,477.99219 L266.445692,480.5 L271.836311,480.5 L271.836311,468.265642 C271.836311,464.457047 268.449596,462.265642 263.867569,462.265642 C259.02773,462.265642 256.285545,464.70314 255.828514,467.984387 L261.113665,468.171887 C261.359759,467.02345 262.308977,466.320326 263.820694,466.320326 C265.226943,466.320326 266.117567,467.000013 266.117567,468.207043 L266.117567,468.265642 C266.117567,469.367198 264.922256,469.601573 261.851946,469.871104 C258.207418,470.175791 255.160546,471.523446 255.160546,475.507817 C255.160546,479.070314 257.6332,480.804687 261.078509,480.804687 Z M262.848039,477.054691 C261.523821,477.054691 260.586322,476.421879 260.586322,475.226568 C260.586322,474.066412 261.500384,473.363288 263.129288,473.117195 C264.195694,472.964851 265.508192,472.730476 266.152723,472.390633 L266.152723,474.101569 C266.152723,475.859379 264.676162,477.054691 262.848039,477.054691 Z M277.299605,460.402363 C278.92851,460.402363 280.241008,459.171895 280.241008,457.660178 C280.241008,456.148461 278.92851,454.929712 277.299605,454.929712 C275.682419,454.929712 274.358202,456.148461 274.358202,457.660178 C274.358202,459.171895 275.682419,460.402363 277.299605,460.402363 Z M280.158977,480.5 L280.158977,462.500017 L274.428514,462.500017 L274.428514,480.5 L280.158977,480.5 Z M288.622258,480.5 L288.622258,456.500023 L282.891795,456.500023 L282.891795,480.5 L288.622258,480.5 Z M296.42929,480.804687 C298.9371,480.804687 300.671474,479.832032 301.655848,477.99219 L301.796473,477.99219 L301.796473,480.5 L307.187093,480.5 L307.187093,468.265642 C307.187093,464.457047 303.800377,462.265642 299.21835,462.265642 C294.378511,462.265642 291.636326,464.70314 291.179295,467.984387 L296.464447,468.171887 C296.71054,467.02345 297.659758,466.320326 299.171475,466.320326 C300.577724,466.320326 301.468348,467.000013 301.468348,468.207043 L301.468348,468.265642 C301.468348,469.367198 300.273037,469.601573 297.202727,469.871104 C293.558199,470.175791 290.511327,471.523446 290.511327,475.507817 C290.511327,479.070314 292.983981,480.804687 296.42929,480.804687 Z M298.19882,477.054691 C296.874602,477.054691 295.937103,476.421879 295.937103,475.226568 C295.937103,474.066412 296.851165,473.363288 298.48007,473.117195 C299.546475,472.964851 300.858974,472.730476 301.503504,472.390633 L301.503504,474.101569 C301.503504,475.859379 300.026943,477.054691 298.19882,477.054691 Z M320.689441,480.757812 C324.673812,480.757812 327.884747,477.640628 327.884747,471.511727 C327.884747,465.160171 324.486312,462.265642 320.724597,462.265642 C317.876944,462.265642 316.318351,463.929703 315.626946,465.582045 L315.509758,465.582045 L315.509758,456.500023 L309.779295,456.500023 L309.779295,480.5 L315.451165,480.5 L315.451165,477.582034 L315.626946,477.582034 C316.353508,479.246095 317.970694,480.757812 320.689441,480.757812 Z M318.708974,476.292973 C316.61132,476.292973 315.392571,474.417975 315.392571,471.500009 C315.392571,468.558605 316.61132,466.742201 318.708974,466.742201 C320.830066,466.742201 322.00194,468.60548 322.00194,471.500009 C322.00194,474.406256 320.830066,476.292973 318.708974,476.292973 Z M332.867574,460.402363 C334.496478,460.402363 335.808977,459.171895 335.808977,457.660178 C335.808977,456.148461 334.496478,454.929712 332.867574,454.929712 C331.250388,454.929712 329.92617,456.148461 329.92617,457.660178 C329.92617,459.171895 331.250388,460.402363 332.867574,460.402363 Z M335.726946,480.5 L335.726946,462.500017 L329.996483,462.500017 L329.996483,480.5 L335.726946,480.5 Z M344.190227,480.5 L344.190227,456.500023 L338.459764,456.500023 L338.459764,480.5 L344.190227,480.5 Z M349.794136,460.402363 C351.423041,460.402363 352.735539,459.171895 352.735539,457.660178 C352.735539,456.148461 351.423041,454.929712 349.794136,454.929712 C348.17695,454.929712 346.852733,456.148461 346.852733,457.660178 C346.852733,459.171895 348.17695,460.402363 349.794136,460.402363 Z M352.653508,480.5 L352.653508,462.500017 L346.923045,462.500017 L346.923045,480.5 L352.653508,480.5 Z M362.944913,480.757812 C364.327724,480.6875 365.323817,480.40625 365.874597,480.242188 L365.007411,476.105473 C364.761317,476.164067 364.187099,476.281254 363.753506,476.281254 C362.827725,476.281254 362.300382,475.906254 362.300382,474.839849 L362.300382,466.718763 L365.546473,466.718763 L365.546473,462.500017 L362.300382,462.500017 L362.300382,458.187521 L356.569919,458.187521 L356.569919,462.500017 L354.191015,462.500017 L354.191015,466.718763 L356.569919,466.718763 L356.569919,475.472661 C356.534763,479.117189 358.901948,480.945312 362.944913,480.757812 Z M371.080073,487.249994 C375.205069,487.249994 377.255848,485.164058 378.251941,482.222655 L385.037091,462.511736 L379.00194,462.500017 L375.638662,475.343755 L375.451162,475.343755 L372.134765,462.500017 L366.134765,462.500017 L372.533196,481.156249 L372.31054,481.695311 C371.75976,483.042966 370.517573,483.066404 368.830075,482.515623 L367.564451,486.675775 C368.431638,487.027338 369.70898,487.249994 371.080073,487.249994 Z" id="Availability" fill="#000000" fill-rule="nonzero" transform="translate(299.711709, 471.089853) rotate(-360.000000) translate(-299.711709, -471.089853) "></path>
            <path d="M283.563062,247.775934 C288.216467,247.775934 290.841464,244.882471 290.841464,240.109748 C290.841464,235.366855 288.216467,232.503221 283.771869,232.503221 L278.849998,232.503221 L278.849998,247.775934 L283.563062,247.775934 Z M283.443744,246.135311 L280.699428,246.135311 L280.699428,234.143845 L283.65255,234.143845 C287.232092,234.143845 289.051693,236.410888 289.051693,240.109748 C289.051693,243.838438 287.232092,246.135311 283.443744,246.135311 Z M296.50312,248.0444 C298.501698,248.0444 299.545731,246.970537 299.903685,246.224799 L299.993174,246.224799 L299.993174,247.775934 L301.753115,247.775934 L301.753115,240.229066 C301.753115,236.589865 298.97897,236.172252 297.517324,236.172252 C295.787212,236.172252 293.818464,236.768842 292.923578,238.856909 L294.594031,239.453499 C294.981815,238.618272 295.899073,237.723387 297.576983,237.723387 C299.195234,237.723387 299.993174,238.580986 299.993174,240.050089 L299.993174,240.109748 C299.993174,240.95989 299.128118,240.885316 297.040052,241.153781 L296.674275,241.203348 C294.657215,241.490435 292.595454,242.049519 292.595454,244.524517 C292.595454,246.761731 294.325565,248.0444 296.50312,248.0444 Z M296.771586,246.463435 C295.369599,246.463435 294.355395,245.837016 294.355395,244.614005 C294.355395,243.271677 295.578405,242.854064 296.950563,242.675087 C297.696301,242.585598 299.694879,242.376792 299.993174,242.018837 L299.993174,243.629631 C299.993174,245.061448 298.859652,246.463435 296.771586,246.463435 Z M308.279824,247.925082 C308.936074,247.925082 309.353687,247.805764 309.592323,247.716275 L309.234369,246.135311 C309.085221,246.16514 308.846585,246.224799 308.458801,246.224799 C307.683234,246.224799 306.937496,245.986163 306.937496,244.494687 L306.937496,237.812875 L309.383516,237.812875 L309.383516,236.3214 L306.937496,236.3214 L306.937496,233.577084 L305.177555,233.577084 L305.177555,236.3214 L303.447443,236.3214 L303.447443,237.812875 L305.177555,237.812875 L305.177555,244.97196 C305.177555,246.970537 306.788348,247.925082 308.279824,247.925082 Z M314.836359,248.0444 C316.834937,248.0444 317.87897,246.970537 318.236924,246.224799 L318.326412,246.224799 L318.326412,247.775934 L320.086354,247.775934 L320.086354,240.229066 C320.086354,236.589865 317.312209,236.172252 315.850562,236.172252 C314.12045,236.172252 312.151702,236.768842 311.256817,238.856909 L312.92727,239.453499 C313.315054,238.618272 314.232311,237.723387 315.910222,237.723387 C317.528473,237.723387 318.326412,238.580986 318.326412,240.050089 L318.326412,240.109748 C318.326412,240.95989 317.461356,240.885316 315.37329,241.153781 C313.247937,241.429704 310.928692,241.899519 310.928692,244.524517 C310.928692,246.761731 312.658804,248.0444 314.836359,248.0444 Z M315.104825,246.463435 C313.702837,246.463435 312.688634,245.837016 312.688634,244.614005 C312.688634,243.271677 313.911644,242.854064 315.283802,242.675087 C316.02954,242.585598 318.028117,242.376792 318.326412,242.018837 L318.326412,243.629631 C318.326412,245.061448 317.192891,246.463435 315.104825,246.463435 Z M256.492752,273.071385 L256.492752,267.015993 L256.6419,267.015993 C257.029684,267.642412 257.775422,269.01457 259.982806,269.01457 C262.84644,269.01457 264.845017,266.717697 264.845017,263.078496 C264.845017,259.469125 262.84644,257.172252 259.952976,257.172252 C257.715763,257.172252 257.029684,258.54441 256.6419,259.141 L256.433093,259.141 L256.433093,257.3214 L254.732811,257.3214 L254.732811,273.071385 L256.492752,273.071385 Z M259.74417,267.433606 C257.626274,267.433606 256.462923,265.643835 256.462923,263.048667 C256.462923,260.483328 257.596445,258.753216 259.74417,258.753216 C261.981384,258.753216 263.085076,260.632476 263.085076,263.048667 C263.085076,265.494687 261.951554,267.433606 259.74417,267.433606 Z M268.7169,268.775934 L268.7169,261.527362 C268.7169,259.976227 269.93991,258.842705 271.610363,258.842705 C272.080178,258.842705 272.564908,258.932194 272.684226,258.962023 L272.684226,257.172252 C272.482877,257.157337 272.020519,257.142423 271.759511,257.142423 C270.387353,257.142423 269.194172,257.91799 268.776559,259.051512 L268.657241,259.051512 L268.657241,257.3214 L266.956959,257.3214 L266.956959,268.775934 L268.7169,268.775934 Z M278.495022,269.01457 C281.597292,269.01457 283.685358,266.658038 283.685358,263.108326 C283.685358,259.528784 281.597292,257.172252 278.495022,257.172252 C275.392753,257.172252 273.304686,259.528784 273.304686,263.108326 C273.304686,266.658038 275.392753,269.01457 278.495022,269.01457 Z M278.495022,267.433606 C276.138491,267.433606 275.064628,265.405199 275.064628,263.108326 C275.064628,260.811453 276.138491,258.753216 278.495022,258.753216 C280.851554,258.753216 281.925417,260.811453 281.925417,263.108326 C281.925417,265.405199 280.851554,267.433606 278.495022,267.433606 Z M289.675137,268.925082 C290.331386,268.925082 290.748999,268.805764 290.987636,268.716275 L290.629681,267.135311 C290.480534,267.16514 290.241898,267.224799 289.854114,267.224799 C289.078546,267.224799 288.332809,266.986163 288.332809,265.494687 L288.332809,258.812875 L290.778829,258.812875 L290.778829,257.3214 L288.332809,257.3214 L288.332809,254.577084 L286.572867,254.577084 L286.572867,257.3214 L284.842755,257.3214 L284.842755,258.812875 L286.572867,258.812875 L286.572867,265.97196 C286.572867,267.970537 288.183661,268.925082 289.675137,268.925082 Z M297.54417,269.01457 C299.870872,269.01457 301.571155,267.851219 302.108086,266.121107 L300.407804,265.643835 C299.960361,266.837016 298.923785,267.433606 297.54417,267.433606 C295.478476,267.433606 294.054117,266.098735 293.972085,263.645257 L302.287063,263.645257 L302.287063,262.899519 C302.287063,258.633898 299.751554,257.172252 297.365193,257.172252 C294.262923,257.172252 292.204686,259.618272 292.204686,263.138155 C292.204686,266.658038 294.233094,269.01457 297.54417,269.01457 Z M300.497292,262.123952 L293.972085,262.123952 C294.091403,260.341638 295.351701,258.753216 297.365193,258.753216 C299.274282,258.753216 300.497292,260.185033 300.497292,262.123952 Z M309.052409,269.01457 C311.587918,269.01457 313.258371,267.463435 313.556666,265.435028 L311.796724,265.435028 C311.4686,266.687868 310.424567,267.433606 309.052409,267.433606 C306.964343,267.433606 305.622014,265.703494 305.622014,263.048667 C305.622014,260.453499 306.994172,258.753216 309.052409,258.753216 C310.603544,258.753216 311.528259,259.707761 311.796724,260.751794 L313.556666,260.751794 C313.258371,258.604069 311.43877,257.172252 309.022579,257.172252 C305.92031,257.172252 303.862073,259.618272 303.862073,263.108326 C303.862073,266.53872 305.830821,269.01457 309.052409,269.01457 Z M319.427125,268.925082 C320.083375,268.925082 320.500988,268.805764 320.739624,268.716275 L320.38167,267.135311 C320.232522,267.16514 319.993886,267.224799 319.606103,267.224799 C318.830535,267.224799 318.084797,266.986163 318.084797,265.494687 L318.084797,258.812875 L320.530818,258.812875 L320.530818,257.3214 L318.084797,257.3214 L318.084797,254.577084 L316.324856,254.577084 L316.324856,257.3214 L314.594744,257.3214 L314.594744,258.812875 L316.324856,258.812875 L316.324856,265.97196 C316.324856,267.970537 317.93565,268.925082 319.427125,268.925082 Z M327.296159,269.01457 C329.622861,269.01457 331.323143,267.851219 331.860075,266.121107 L330.159792,265.643835 C329.71235,266.837016 328.675774,267.433606 327.296159,267.433606 C325.230465,267.433606 323.806105,266.098735 323.724074,263.645257 L332.039052,263.645257 L332.039052,262.899519 C332.039052,258.633898 329.503543,257.172252 327.117182,257.172252 C324.014912,257.172252 321.956675,259.618272 321.956675,263.138155 C321.956675,266.658038 323.985082,269.01457 327.296159,269.01457 Z M330.249281,262.123952 L323.724074,262.123952 C323.843392,260.341638 325.103689,258.753216 327.117182,258.753216 C329.026271,258.753216 330.249281,260.185033 330.249281,262.123952 Z M338.476273,269.01457 C340.683657,269.01457 341.429395,267.642412 341.817179,267.015993 L342.025985,267.015993 L342.025985,268.775934 L343.726268,268.775934 L343.726268,253.503221 L341.966326,253.503221 L341.966326,259.141 L341.817179,259.141 C341.429395,258.54441 340.743316,257.172252 338.506102,257.172252 C335.612639,257.172252 333.614062,259.469125 333.614062,263.078496 C333.614062,266.717697 335.612639,269.01457 338.476273,269.01457 Z M338.714909,267.433606 C336.507525,267.433606 335.374003,265.494687 335.374003,263.048667 C335.374003,260.632476 336.477695,258.753216 338.714909,258.753216 C340.862634,258.753216 341.996156,260.483328 341.996156,263.048667 C341.996156,265.643835 340.832805,267.433606 338.714909,267.433606 Z M249.036854,290.01457 C251.900488,290.01457 253.899065,287.717697 253.899065,284.078496 C253.899065,280.469125 251.900488,278.172252 249.007024,278.172252 C246.769811,278.172252 246.083732,279.54441 245.695948,280.141 L245.5468,280.141 L245.5468,274.503221 L243.786859,274.503221 L243.786859,289.775934 L245.487141,289.775934 L245.487141,288.015993 L245.695948,288.015993 C246.083732,288.642412 246.82947,290.01457 249.036854,290.01457 Z M248.798218,288.433606 C246.680322,288.433606 245.516971,286.643835 245.516971,284.048667 C245.516971,281.483328 246.650493,279.753216 248.798218,279.753216 C251.035432,279.753216 252.139124,281.632476 252.139124,284.048667 C252.139124,286.494687 251.005602,288.433606 248.798218,288.433606 Z M256.726915,294.071385 C258.315337,294.071385 259.433944,293.228701 260.09765,291.446387 L264.974776,278.351229 L263.050773,278.3214 L259.888844,287.449232 L259.769526,287.449232 L256.607597,278.3214 L254.698508,278.3214 L258.934299,289.835593 L258.606175,290.730479 C257.96484,292.475505 257.174358,292.639568 255.891688,292.311443 L255.444246,293.862578 C255.623223,293.952067 256.130325,294.071385 256.726915,294.071385 Z M278.445802,289.984741 C281.518242,289.984741 284.023922,288.135311 284.590683,285.003211 L282.741252,285.003211 C282.29381,287.121107 280.474209,288.254629 278.445802,288.254629 C275.671657,288.254629 273.494102,286.106904 273.494102,282.139578 C273.494102,278.172252 275.671657,276.024527 278.445802,276.024527 C280.474209,276.024527 282.29381,277.158048 282.741252,279.275944 L284.590683,279.275944 C284.023922,276.143845 281.518242,274.294415 278.445802,274.294415 C274.538135,274.294415 271.704331,277.307196 271.704331,282.139578 C271.704331,286.97196 274.538135,289.984741 278.445802,289.984741 Z M288.850352,289.775934 L288.850352,274.503221 L287.000922,274.503221 L287.000922,289.775934 L288.850352,289.775934 Z M292.60291,289.775934 L294.13913,285.450654 L300.31384,285.450654 L301.85006,289.775934 L303.788978,289.775934 L298.181029,274.503221 L296.27194,274.503221 L290.663991,289.775934 L292.60291,289.775934 Z M299.732164,283.810031 L294.720805,283.810031 L297.166826,276.919412 L297.286144,276.919412 L299.732164,283.810031 Z M316.752905,289.775934 L316.752905,276.143845 L321.555457,276.143845 L321.555457,274.503221 L310.100922,274.503221 L310.100922,276.143845 L314.903475,276.143845 L314.903475,289.775934 L316.752905,289.775934 Z M324.1745,289.775934 L324.1745,282.527362 C324.1745,280.976227 325.39751,279.842705 327.067963,279.842705 C327.537778,279.842705 328.022507,279.932194 328.141825,279.962023 L328.141825,278.172252 C327.940476,278.157337 327.478119,278.142423 327.21711,278.142423 C325.844953,278.142423 324.651772,278.91799 324.234159,280.051512 L324.114841,280.051512 L324.114841,278.3214 L322.414558,278.3214 L322.414558,289.775934 L324.1745,289.775934 Z M333.027907,290.0444 C335.026485,290.0444 336.070518,288.970537 336.428472,288.224799 L336.517961,288.224799 L336.517961,289.775934 L338.277902,289.775934 L338.277902,282.229066 C338.277902,278.589865 335.503757,278.172252 334.042111,278.172252 C332.311999,278.172252 330.343251,278.768842 329.448365,280.856909 L331.118818,281.453499 C331.506602,280.618272 332.423859,279.723387 334.10177,279.723387 C335.720021,279.723387 336.517961,280.580986 336.517961,282.050089 L336.517961,282.109748 C336.517961,282.95989 335.652905,282.885316 333.564839,283.153781 L333.199062,283.203348 C331.182002,283.490435 329.12024,284.049519 329.12024,286.524517 C329.12024,288.761731 330.850352,290.0444 333.027907,290.0444 Z M333.296373,288.463435 C331.894386,288.463435 330.880182,287.837016 330.880182,286.614005 C330.880182,285.271677 332.103192,284.854064 333.47535,284.675087 C334.221088,284.585598 336.219666,284.376792 336.517961,284.018837 L336.517961,285.629631 C336.517961,287.061448 335.384439,288.463435 333.296373,288.463435 Z M341.82166,276.412311 C342.507738,276.412311 343.074499,275.875379 343.074499,275.21913 C343.074499,274.56288 342.507738,274.025949 341.82166,274.025949 C341.135581,274.025949 340.56882,274.56288 340.56882,275.21913 C340.56882,275.875379 341.135581,276.412311 341.82166,276.412311 Z M342.686716,289.775934 L342.686716,278.3214 L340.926774,278.3214 L340.926774,289.775934 L342.686716,289.775934 Z M349.660861,290.01457 C351.868245,290.01457 352.613983,288.642412 353.001767,288.015993 L353.210573,288.015993 L353.210573,289.775934 L354.910856,289.775934 L354.910856,274.503221 L353.150914,274.503221 L353.150914,280.141 L353.001767,280.141 C352.613983,279.54441 351.927904,278.172252 349.69069,278.172252 C346.797227,278.172252 344.79865,280.469125 344.79865,284.078496 C344.79865,287.717697 346.797227,290.01457 349.660861,290.01457 Z M349.899497,288.433606 C347.692113,288.433606 346.558591,286.494687 346.558591,284.048667 C346.558591,281.632476 347.662283,279.753216 349.899497,279.753216 C352.047222,279.753216 353.180744,281.483328 353.180744,284.048667 C353.180744,286.643835 352.017393,288.433606 349.899497,288.433606 Z" id="DataprotectedbyCIATraid" fill="#000000" fill-rule="nonzero" transform="translate(299.348857, 263.287303) rotate(-360.000000) translate(-299.348857, -263.287303) "></path>
            <path d="M47.9290944,192.578125 C54.5150256,192.578125 58.1595534,188.101566 58.5931467,183.847664 L52.7337773,183.812508 C52.3236214,186.1211 50.5892481,187.492192 48.0462818,187.492192 C44.62441,187.492192 42.4681621,185.019538 42.4681621,180.250011 C42.4681621,175.667985 44.5775351,173.007831 48.081438,173.007831 C50.7181542,173.007831 52.4408088,174.542986 52.7337773,176.945327 L58.5931467,176.945327 C58.0072098,171.203145 53.7298701,167.921898 47.9290944,167.921898 C41.530663,167.921898 36.550199,172.316425 36.550199,180.250011 C36.550199,188.148441 41.4134756,192.578125 47.9290944,192.578125 Z M69.4001907,192.589843 C75.0603415,192.589843 78.493932,188.851566 78.493932,183.308602 C78.493932,177.75392 75.0603415,174.015642 69.4001907,174.015642 C63.7400398,174.015642 60.3064494,177.75392 60.3064494,183.308602 C60.3064494,188.851566 63.7400398,192.589843 69.4001907,192.589843 Z M69.4353469,188.265629 C67.3142552,188.265629 66.1423813,186.250006 66.1423813,183.273446 C66.1423813,180.285168 67.3142552,178.257826 69.4353469,178.257826 C71.4861262,178.257826 72.6580001,180.285168 72.6580001,183.273446 C72.6580001,186.250006 71.4861262,188.265629 69.4353469,188.265629 Z M86.2658182,192.25 L86.2658182,181.984385 C86.2775369,179.933605 87.4728483,178.714857 89.2892528,178.714857 C91.1056573,178.714857 92.1837813,179.910168 92.1720626,181.902354 L92.1720626,192.25 L97.9025673,192.25 L97.9025673,180.777355 C97.9142446,176.722671 95.4415907,174.015642 91.6564381,174.015642 C88.9962843,174.015642 86.9806613,175.363297 86.183787,177.554702 L85.9845685,177.554702 L85.9845685,174.250017 L80.5353549,174.250017 L80.5353549,192.25 L86.2658182,192.25 Z M107.361911,192.25 L107.361911,178.468763 L110.795501,178.468763 L110.795501,174.250017 L107.361911,174.250017 L107.361911,173.242206 C107.361911,172.210957 107.783785,171.578145 109.119722,171.578145 C109.658784,171.578145 110.315033,171.695332 110.736908,171.824238 L111.650969,167.62893 C110.971282,167.44143 109.41269,167.125024 107.83066,167.125024 C104.162695,167.125024 101.643166,169.164085 101.643166,173.335956 L101.643166,174.250017 L99.2173874,174.250017 L99.2173874,178.468763 L101.643166,178.468763 L101.643166,192.25 L107.361911,192.25 Z M115.532227,172.152363 C117.161132,172.152363 118.473631,170.921895 118.473631,169.410178 C118.473631,167.898461 117.161132,166.679712 115.532227,166.679712 C113.915041,166.679712 112.590824,167.898461 112.590824,169.410178 C112.590824,170.921895 113.915041,172.152363 115.532227,172.152363 Z M118.391599,192.25 L118.391599,174.250017 L112.661136,174.250017 L112.661136,192.25 L118.391599,192.25 Z M127.69863,192.507812 C130.417377,192.507812 132.034563,190.996095 132.761125,189.332034 L132.936906,189.332034 L132.936906,192.25 L138.608776,192.25 L138.608776,168.250023 L132.878312,168.250023 L132.878312,177.332045 L132.761125,177.332045 C132.081438,175.679703 130.511127,174.015642 127.675192,174.015642 C123.913477,174.015642 120.503324,176.910171 120.503324,183.261727 C120.503324,189.390628 123.725977,192.507812 127.69863,192.507812 Z M129.690815,188.042973 C127.569724,188.042973 126.386131,186.156256 126.386131,183.250009 C126.386131,180.35548 127.558005,178.492201 129.690815,178.492201 C131.78847,178.492201 133.007218,180.308605 133.007218,183.250009 C133.007218,186.167975 131.776751,188.042973 129.690815,188.042973 Z M149.755659,192.589843 C154.478311,192.589843 157.583777,190.304689 158.240026,186.76563 L152.978312,186.613287 C152.533,187.808598 151.361126,188.453129 149.861128,188.453129 C147.658005,188.453129 146.298631,186.988286 146.298631,184.785163 L146.298631,184.63282 L158.29862,184.63282 L158.29862,183.203134 C158.29862,177.273452 154.689248,174.015642 149.579878,174.015642 C144.142383,174.015642 140.650199,177.742201 140.650199,183.320321 C140.650199,189.085941 144.095508,192.589843 149.755659,192.589843 Z M152.966594,181.304698 L146.298631,181.304698 C146.380662,179.511731 147.798631,178.152357 149.697066,178.152357 C151.583783,178.152357 152.943156,179.464856 152.966594,181.304698 Z M166.070506,192.25 L166.070506,181.984385 C166.082224,179.933605 167.277536,178.714857 169.09394,178.714857 C170.910345,178.714857 171.988469,179.910168 171.97675,181.902354 L171.97675,192.25 L177.707255,192.25 L177.707255,180.777355 C177.718932,176.722671 175.246278,174.015642 171.461125,174.015642 C168.800972,174.015642 166.785349,175.363297 165.988474,177.554702 L165.789256,177.554702 L165.789256,174.250017 L160.340042,174.250017 L160.340042,192.25 L166.070506,192.25 Z M187.928316,192.507812 C189.311127,192.4375 190.30722,192.15625 190.858001,191.992188 L189.990814,187.855473 C189.744721,187.914067 189.170503,188.031254 188.736909,188.031254 C187.811129,188.031254 187.283786,187.656254 187.283786,186.589849 L187.283786,178.468763 L190.529876,178.468763 L190.529876,174.250017 L187.283786,174.250017 L187.283786,169.937521 L181.553322,169.937521 L181.553322,174.250017 L179.174418,174.250017 L179.174418,178.468763 L181.553322,178.468763 L181.553322,187.222661 C181.518166,190.867189 183.885351,192.695312 187.928316,192.507812 Z M195.430664,172.152363 C197.059569,172.152363 198.372068,170.921895 198.372068,169.410178 C198.372068,167.898461 197.059569,166.679712 195.430664,166.679712 C193.813478,166.679712 192.489261,167.898461 192.489261,169.410178 C192.489261,170.921895 193.813478,172.152363 195.430664,172.152363 Z M198.290037,192.25 L198.290037,174.250017 L192.559573,174.250017 L192.559573,192.25 L198.290037,192.25 Z M206.097069,192.554687 C208.604879,192.554687 210.339252,191.582032 211.323626,189.74219 L211.464251,189.74219 L211.464251,192.25 L216.854871,192.25 L216.854871,180.015642 C216.854871,176.207047 213.468155,174.015642 208.886128,174.015642 C204.046289,174.015642 201.304104,176.45314 200.847074,179.734387 L206.132225,179.921887 C206.378318,178.77345 207.327536,178.070326 208.839253,178.070326 C210.245502,178.070326 211.136126,178.750013 211.136126,179.957043 L211.136126,180.015642 C211.136126,181.117198 209.940815,181.351573 206.870505,181.621104 C203.225978,181.925791 200.179105,183.273446 200.179105,187.257817 C200.179105,190.820314 202.651759,192.554687 206.097069,192.554687 Z M207.866598,188.804691 C206.542381,188.804691 205.604882,188.171879 205.604882,186.976568 C205.604882,185.816412 206.518943,185.113288 208.147848,184.867195 C209.214253,184.714851 210.526752,184.480476 211.171282,184.140633 L211.171282,185.851569 C211.171282,187.609379 209.694721,188.804691 207.866598,188.804691 Z M225.177537,192.25 L225.177537,168.250023 L219.447073,168.250023 L219.447073,192.25 L225.177537,192.25 Z M230.781446,172.152363 C232.41035,172.152363 233.722849,170.921895 233.722849,169.410178 C233.722849,167.898461 232.41035,166.679712 230.781446,166.679712 C229.16426,166.679712 227.840042,167.898461 227.840042,169.410178 C227.840042,170.921895 229.16426,172.152363 230.781446,172.152363 Z M233.640818,192.25 L233.640818,174.250017 L227.910355,174.250017 L227.910355,192.25 L233.640818,192.25 Z M243.932222,192.507812 C245.315033,192.4375 246.311126,192.15625 246.861907,191.992188 L245.99472,187.855473 C245.748627,187.914067 245.174409,188.031254 244.740815,188.031254 C243.815035,188.031254 243.287692,187.656254 243.287692,186.589849 L243.287692,178.468763 L246.533782,178.468763 L246.533782,174.250017 L243.287692,174.250017 L243.287692,169.937521 L237.557228,169.937521 L237.557228,174.250017 L235.178324,174.250017 L235.178324,178.468763 L237.557228,178.468763 L237.557228,187.222661 C237.522072,190.867189 239.889257,192.695312 243.932222,192.507812 Z M252.067382,198.999994 C256.192378,198.999994 258.243158,196.914058 259.239251,193.972655 L266.0244,174.261736 L259.98925,174.250017 L256.625972,187.093755 L256.438472,187.093755 L253.122075,174.250017 L247.122075,174.250017 L253.520506,192.906249 L253.29785,193.445311 C252.747069,194.792966 251.504883,194.816404 249.817385,194.265623 L248.551761,198.425775 C249.418947,198.777338 250.69629,198.999994 252.067382,198.999994 Z" id="Confidentiality" fill="#000000" fill-rule="nonzero" transform="translate(151.287300, 182.839853) rotate(-60.000000) translate(-151.287300, -182.839853) "></path>
        </g>
    </g>
</svg>